<?xml version="1.0" encoding="utf-8"?>
<!-- Generator: Adobe Illustrator 16.0.4, SVG Export Plug-In . SVG Version: 6.00 Build 0)  -->
<!DOCTYPE svg PUBLIC "-//W3C//DTD SVG 1.1//EN" "http://www.w3.org/Graphics/SVG/1.1/DTD/svg11.dtd">
<svg version="1.1" id="Layer_1" xmlns="http://www.w3.org/2000/svg" xmlns:xlink="http://www.w3.org/1999/xlink" x="0px" y="0px"
	 width="865.117px" height="770px" viewBox="0 0 865.117 770" enable-background="new 0 0 865.117 770" xml:space="preserve">
<g>
	<path fill="#1F4388" d="M863.577,277.021c-0.646-3.546-4.871-4.946-7.812-2.849l-71.38,50.828c-1.95,1.391-4.432,1.852-6.758,1.267
		l-12.339-3.133l0.329,15.758c0.059,2.453,0.903,4.834,2.409,6.776l39.938,51.461C853.628,368.454,870.642,315.842,863.577,277.021z
		"/>
	<path fill="#1F4388" d="M797.349,424.549l-12.456-16.059l-42.474-54.732c-1.506-1.941-2.347-4.32-2.399-6.777l-0.646-30.413
		l-0.671-32.043c-0.051-2.351,1.121-4.579,3.081-5.867l82.926-54.535c2.911-1.913,2.619-6.234-0.45-7.889
		c-14.94-8.056-31.054-15.691-47.548-20.928c-18.362-5.841-38.766-5.086-58.059,0.211c-25.243,6.933-48.583,21.658-62.907,39.64
		c-26.478,33.252-29.883,61.236-34.338,92.698c-1.821,12.869-7.737,24.71-16.957,33.868c-2.083,2.071-63.199,63.1-132.32,132.098
		l-53.455-52.267c26.07-34.67,41.521-77.78,41.512-124.512c0-0.706-0.02-1.042-0.026-2.042h-47.857
		c0.634,50-22.55,100.193-66.64,131.763c-71.627,51.305-171.294,34.874-222.596-36.769C102.438,381.191,92.776,348,93.245,315
		H45.387c-0.007,1-0.027,1.36-0.027,2.092c0.027,114.555,92.904,207.355,207.455,207.33c43.836-0.008,84.484-13.616,117.975-36.818
		l54.34,53.131c-53.819,53.715-105.635,105.41-132.404,132.062c-20.104,20.008-20.172,52.514-0.161,72.618l9.425,9.467
		c9.631,9.676,22.728,15.118,36.382,15.118c13.661,0.003,26.753-5.438,36.389-15.115c26.186-26.285,79.146-79.403,133.038-133.321
		l105.045,102.708c22.262,22.174,69.128-24.869,46.867-47.045L554.765,574.615c57.546-57.47,107.031-106.648,113.878-112.7
		c44.601-39.068,85.192-21.139,125.994-29.565c2.705-0.559,4.14-3.174,3.679-5.644C798.171,425.949,797.862,425.213,797.349,424.549
		z M348.986,720.627c-5.996,5.971-15.706,5.947-21.685-0.055c-5.973-6.004-5.949-15.708,0.055-21.688
		c6.004-5.972,15.703-5.952,21.685,0.051C355.017,704.937,354.996,714.646,348.986,720.627z M713.254,395.91l-19.999,4.894
		c-4.057,0.989-8.155-1.491-9.159-5.555l-15.69-63.938l-0.366-1.512c-0.995-4.062,1.479-8.158,5.548-9.154l19.994-4.892
		c4.062-0.993,8.163,1.488,9.16,5.556l14.499,59.05l1.563,6.394C719.808,390.815,717.316,394.915,713.254,395.91z"/>
	<path fill="#1F4388" d="M447.148,292h19.464h6.275c0.777,0,1.498-0.168,2.262-0.217c16.696-1.167,29.919-14.616,29.919-31.281
		c0-17.427-14.399-31.502-32.181-31.502h1.984c-12.349-40-42.664-160.562-159.09-191.872l-4.19,54.812L299.297,252h-11.739V86.27
		V68.686V30.7c-1-0.021-0.383-0.042-0.482-0.055C279.562,12.53,263.601,0,245.167,0c-18.079,0-33.834,12.09-41.496,29.681
		c-0.344,0.071-1.112,0.129-1.112,0.196v36.71V90.68v158.299V252h-12v-11.243l-9.558-142.894l-4.202-62.796
		C52.771,65.752,36.384,200,31.396,229h0.797C14.413,229,0,243.078,0,260.504C0,277.933,14.413,292,32.194,292h2.895h1.064h23.477
		H447.148z"/>
</g>
</svg>
